<svg width="105" height="33" viewBox="0 0 105 33" fill="none" xmlns="http://www.w3.org/2000/svg">
<path fill-rule="evenodd" clip-rule="evenodd" d="M24.9765 11.8329L23.9713 10.8277L13.8021 0.658478L3.6161 10.8277L2.61091 11.8329C-0.203636 14.6474 -0.203636 19.2043 2.61091 22.0188C4.01818 23.4261 5.86104 24.1297 7.70389 24.1297C9.54675 24.1297 11.3896 23.4261 12.7969 22.0188L13.8021 21.0136L14.8073 22.0188C16.2145 23.4261 18.0574 24.1297 19.9003 24.1297C21.7431 24.1297 23.586 23.4261 24.9932 22.0188C27.791 19.2043 27.791 14.6306 24.9765 11.8329ZM19.4144 15.3845L18.9118 15.8871L13.8021 20.9968L8.69233 15.8871L8.18974 15.3845C6.78247 13.9773 6.78247 11.6821 8.18974 10.2748C8.89337 9.57117 9.8148 9.21936 10.753 9.21936C11.6744 9.21936 12.5958 9.57117 13.3162 10.2748L13.8188 10.7774L14.3214 10.2748C15.0251 9.57117 15.9465 9.21936 16.8847 9.21936C17.8229 9.21936 18.7275 9.57117 19.4479 10.2748C20.8217 11.6821 20.8217 13.9605 19.4144 15.3845ZM94.1998 13.5079C96.0761 11.0451 99.8959 11.2462 101.672 12.4692C102.978 13.3738 103.732 14.6303 104.051 16.1549C104.185 16.8082 104.235 17.4784 104.235 18.1652V26.7931C104.235 27.1114 104.134 27.1617 103.866 27.1617C102.811 27.1449 101.755 27.1449 100.7 27.1617C100.449 27.1617 100.382 27.1114 100.382 26.8434C100.398 24.0791 100.398 21.3148 100.382 18.5506C100.382 17.6124 100.164 16.7412 99.477 16.0543C98.5053 15.0994 97.3494 14.9821 96.1264 15.3675C94.9872 15.736 94.4846 16.6574 94.2835 17.7632C94.2333 18.0982 94.2165 18.4333 94.2165 18.7683V26.8601C94.2165 27.1114 94.1663 27.1952 93.8982 27.1952C92.8092 27.1784 91.7203 27.1784 90.6313 27.1952C90.3968 27.1952 90.3465 27.1282 90.3465 26.8936V7.12491C90.3465 6.90711 90.3968 6.8401 90.6146 6.8401C91.7035 6.85685 92.8092 6.85685 93.8982 6.8401C94.1495 6.8401 94.1998 6.92386 94.1998 7.15841C94.1886 8.48687 94.1923 9.80789 94.196 11.1314L94.196 11.1376C94.1979 11.7982 94.1998 12.4595 94.1998 13.1225V13.5079ZM36.4365 7.15851V16.9424C36.4365 20.226 36.4365 23.5096 36.4197 26.7932C36.4197 27.0445 36.4533 27.1283 36.7381 27.1283C37.827 27.1115 38.9327 27.1115 40.0217 27.1283C40.3232 27.1283 40.3735 27.0278 40.3735 26.7597C40.3651 25.5707 40.3651 24.3775 40.3651 23.1822V23.1806C40.3651 21.9849 40.3651 20.7871 40.3568 19.5894C40.3568 19.3046 40.407 19.204 40.7253 19.204C43.0365 19.2208 45.3476 19.2208 47.6588 19.2208H47.6612C47.8957 19.2208 47.9962 19.1873 47.9962 18.9025C47.9795 17.8973 47.9795 16.8754 47.9962 15.8534C47.9962 15.5519 47.946 15.4681 47.6277 15.4681C46.4634 15.4765 45.3034 15.4765 44.1433 15.4765H44.1429C42.9828 15.4765 41.8227 15.4765 40.6583 15.4848C40.407 15.4848 40.3568 15.4011 40.3568 15.1665C40.3735 13.7425 40.3735 12.3185 40.3568 10.8945C40.3568 10.6432 40.4238 10.5762 40.6918 10.5762C43.4555 10.5929 46.2024 10.5929 48.966 10.5929H48.9679C49.2025 10.5929 49.2695 10.5427 49.2695 10.3081C49.2527 9.26941 49.2527 8.23072 49.2695 7.19202C49.2695 6.92397 49.2192 6.8402 48.9344 6.8402C44.8801 6.85696 40.8091 6.85696 36.7548 6.8402C36.4868 6.82345 36.4365 6.90721 36.4365 7.15851ZM59.4548 16.7749V12.2348C59.4548 12.0002 59.5218 11.9499 59.7396 11.9499C60.8285 11.9667 61.9175 11.9667 63.0064 11.9499C63.2745 11.9499 63.3415 12.017 63.3248 12.2683C63.2996 13.55 63.2787 14.8276 63.2577 16.1052C63.2368 17.3825 63.2159 18.6598 63.1907 19.9412C63.174 20.8794 63.3247 21.8009 63.8944 22.5883C64.6818 23.6772 65.7707 24.029 67.0607 23.8112C68.3842 23.5934 69.1549 22.739 69.5402 21.4993C69.691 21.0135 69.7245 20.5109 69.7245 20.0083V12.2683C69.7245 12.017 69.7747 11.9332 70.0428 11.9499C71.1318 11.9667 72.2207 11.9667 73.3097 11.9499C73.5107 11.9499 73.5945 11.9835 73.5945 12.218C73.5861 13.5834 73.5861 14.953 73.5861 16.3225C73.5861 17.6921 73.5861 19.0617 73.5777 20.4271C73.5777 21.7506 73.3432 23.0406 72.6563 24.2133C71.7181 25.8216 70.3444 26.8268 68.535 27.2457C66.8429 27.631 65.1676 27.5975 63.5593 26.9441C61.3981 26.0729 60.1249 24.4479 59.639 22.1694C59.505 21.5496 59.4715 20.9129 59.4715 20.2931C59.4548 19.1203 59.4548 17.9476 59.4548 16.7749ZM77.514 26.6428C78.804 27.3464 80.2113 27.5642 81.8363 27.581C82.4562 27.5642 83.2436 27.4972 84.0142 27.2962C85.9074 26.7936 87.4486 25.3193 87.6497 23.3424C87.834 21.6001 87.2476 20.2095 85.7733 19.2211C85.0826 18.7606 84.3053 18.5226 83.5264 18.2841L83.5263 18.2841C83.3985 18.2449 83.2706 18.2058 83.1431 18.1657C82.9824 18.1131 82.8217 18.0623 82.6614 18.0116C81.9528 17.7875 81.2524 17.566 80.5966 17.2107C80.094 16.9427 79.7924 16.5406 79.8594 15.9207C79.9265 15.3344 80.2783 15.016 80.7809 14.8318C81.4845 14.5637 82.2216 14.614 82.942 14.7647C83.8802 14.949 84.6509 15.4349 85.2707 16.1385C85.388 16.2893 85.4718 16.3228 85.6058 16.1553L85.6062 16.1548C86.1924 15.5016 86.7787 14.8484 87.3816 14.2119C87.4822 14.1114 87.5157 14.0276 87.4151 13.8936C86.7785 13.0559 85.9576 12.436 84.9692 12.0842C83.3609 11.4979 81.719 11.3973 80.0605 11.7157C77.9998 12.101 76.4753 13.6423 76.2575 15.5689C76.0565 17.328 76.8271 18.9531 78.3684 19.7572C79.5914 20.4106 80.8646 20.8629 82.1714 21.2483C82.5735 21.3655 82.9755 21.5331 83.3274 21.7676C83.7797 22.0524 84.0645 22.421 84.031 22.9738C83.9975 23.5937 83.6457 24.0125 83.0761 24.2471C82.2719 24.5821 81.4175 24.4984 80.5966 24.3308C79.4741 24.1131 78.5527 23.5434 77.782 22.7225C77.766 22.7065 77.7512 22.6881 77.7367 22.67C77.6754 22.5934 77.6192 22.5232 77.4972 22.6723C76.8946 23.4088 76.2753 24.1453 75.6559 24.8819L75.6544 24.8837C75.5706 24.9842 75.5706 25.0345 75.6544 25.135C76.1905 25.7549 76.8104 26.2575 77.514 26.6428ZM52.2164 16.9927V7.17535C52.2164 6.87379 52.3002 6.82353 52.5682 6.82353C53.6404 6.84028 54.7294 6.84028 55.8016 6.82353C56.0194 6.82353 56.0864 6.87379 56.0864 7.10834V26.8436C56.0864 27.0614 56.0529 27.1284 55.8183 27.1284C54.7294 27.1116 53.6237 27.1116 52.5347 27.1284C52.2834 27.1284 52.2332 27.0781 52.2332 26.8268C52.2164 23.56 52.2164 20.2763 52.2164 16.9927ZM13.825 23.0393L18.6346 27.8489L13.825 32.6584L9.01547 27.8489L13.825 23.0393Z" fill="black"/>
</svg>
