<svg width="114" height="34" viewBox="0 0 114 34" fill="none" xmlns="http://www.w3.org/2000/svg">
<rect x="0.517426" y="0.517426" width="32.9651" height="32.9651" rx="16.4826" fill="url(#paint0_linear_1_203)"/>
<rect x="0.517426" y="0.517426" width="32.9651" height="32.9651" rx="16.4826" stroke="url(#paint1_linear_1_203)" stroke-width="0.965147"/>
<path d="M13.4712 16.8299V11.617C13.4712 11.3021 13.2161 11.0467 12.9011 11.0467H11.6177C10.4057 11.0467 9.37205 11.5814 8.55223 12.2586C7.91921 12.7816 5.92921 15.4717 4.91537 16.887C4.84624 16.9835 4.80954 17.0988 4.80954 17.2175V22.3602C4.80954 22.6835 5.07778 22.9427 5.40101 22.9388C5.79031 22.9341 6.28795 22.9348 6.76999 22.952C7.76804 22.9877 9.26512 22.5243 10.0137 21.4193C10.5852 20.5756 12.3927 18.3444 13.3414 17.1924C13.4257 17.0901 13.4712 16.9625 13.4712 16.8299Z" fill="white"/>
<circle cx="17" cy="19.2825" r="3.6714" fill="white"/>
<path d="M20.5288 16.8299V11.617C20.5288 11.3021 20.7839 11.0467 21.0989 11.0467H22.3823C23.5943 11.0467 24.6279 11.5814 25.4478 12.2586C26.0808 12.7816 28.0708 15.4717 29.0846 16.887C29.1538 16.9835 29.1905 17.0988 29.1905 17.2175V22.3602C29.1905 22.6835 28.9222 22.9427 28.599 22.9388C28.2097 22.9341 27.7121 22.9348 27.23 22.952C26.232 22.9877 24.7349 22.5243 23.9863 21.4193C23.4148 20.5756 21.6073 18.3444 20.6586 17.1924C20.5743 17.0901 20.5288 16.9625 20.5288 16.8299Z" fill="white"/>
<path d="M45.4313 9.45455V24H42.356V9.45455H45.4313ZM50.4302 17.6932V24H47.4047V13.0909H50.2882V15.0156H50.416C50.6575 14.3812 51.0623 13.8793 51.6305 13.5099C52.1987 13.1359 52.8876 12.9489 53.6973 12.9489C54.4548 12.9489 55.1154 13.1146 55.6788 13.446C56.2422 13.7775 56.6802 14.2509 56.9927 14.8665C57.3052 15.4773 57.4615 16.2064 57.4615 17.054V24H54.4359V17.5938C54.4406 16.9261 54.2702 16.4053 53.9245 16.0312C53.5789 15.6525 53.103 15.4631 52.497 15.4631C52.0898 15.4631 51.7299 15.5507 51.4174 15.7259C51.1097 15.901 50.8682 16.1567 50.693 16.4929C50.5225 16.8243 50.435 17.2244 50.4302 17.6932ZM65.2125 13.0909V15.3636H58.4796V13.0909H65.2125ZM60.0208 24V12.3026C60.0208 11.5118 60.1747 10.8561 60.4824 10.3352C60.7949 9.81439 61.2211 9.42377 61.7608 9.16335C62.3006 8.90293 62.9138 8.77273 63.6003 8.77273C64.0643 8.77273 64.4881 8.80824 64.8716 8.87926C65.2599 8.95028 65.5487 9.0142 65.7381 9.07102L65.1983 11.3438C65.08 11.3059 64.9332 11.2704 64.758 11.2372C64.5875 11.2041 64.4123 11.1875 64.2324 11.1875C63.7873 11.1875 63.4772 11.2917 63.302 11.5C63.1268 11.7036 63.0392 11.9901 63.0392 12.3594V24H60.0208ZM66.5609 24V13.0909H69.5865V24H66.5609ZM68.0808 11.6847C67.631 11.6847 67.2451 11.5355 66.9231 11.2372C66.6059 10.9342 66.4473 10.572 66.4473 10.1506C66.4473 9.7339 66.6059 9.37642 66.9231 9.07812C67.2451 8.77509 67.631 8.62358 68.0808 8.62358C68.5306 8.62358 68.9141 8.77509 69.2314 9.07812C69.5533 9.37642 69.7143 9.7339 69.7143 10.1506C69.7143 10.572 69.5533 10.9342 69.2314 11.2372C68.9141 11.5355 68.5306 11.6847 68.0808 11.6847ZM74.5357 17.6932V24H71.5101V13.0909H74.3936V15.0156H74.5215C74.763 14.3812 75.1678 13.8793 75.736 13.5099C76.3042 13.1359 76.9931 12.9489 77.8027 12.9489C78.5603 12.9489 79.2208 13.1146 79.7843 13.446C80.3477 13.7775 80.7857 14.2509 81.0982 14.8665C81.4107 15.4773 81.5669 16.2064 81.5669 17.054V24H78.5414V17.5938C78.5461 16.9261 78.3757 16.4053 78.03 16.0312C77.6844 15.6525 77.2085 15.4631 76.6025 15.4631C76.1953 15.4631 75.8354 15.5507 75.5229 15.7259C75.2151 15.901 74.9737 16.1567 74.7985 16.4929C74.628 16.8243 74.5404 17.2244 74.5357 17.6932ZM83.4515 24V13.0909H86.4771V24H83.4515ZM84.9714 11.6847C84.5216 11.6847 84.1357 11.5355 83.8137 11.2372C83.4965 10.9342 83.3379 10.572 83.3379 10.1506C83.3379 9.7339 83.4965 9.37642 83.8137 9.07812C84.1357 8.77509 84.5216 8.62358 84.9714 8.62358C85.4212 8.62358 85.8047 8.77509 86.122 9.07812C86.444 9.37642 86.6049 9.7339 86.6049 10.1506C86.6049 10.572 86.444 10.9342 86.122 11.2372C85.8047 11.5355 85.4212 11.6847 84.9714 11.6847ZM94.2033 13.0909V15.3636H87.6337V13.0909H94.2033ZM89.1252 10.4773H92.1507V20.6477C92.1507 20.9271 92.1934 21.1449 92.2786 21.3011C92.3638 21.4527 92.4822 21.5592 92.6337 21.6207C92.79 21.6823 92.9699 21.7131 93.1735 21.7131C93.3155 21.7131 93.4576 21.7012 93.5996 21.6776C93.7417 21.6491 93.8506 21.6278 93.9263 21.6136L94.4022 23.8651C94.2507 23.9124 94.0376 23.9669 93.763 24.0284C93.4883 24.0947 93.1545 24.1349 92.7615 24.1491C92.0324 24.1776 91.3932 24.0805 90.8439 23.858C90.2994 23.6354 89.8757 23.2898 89.5726 22.821C89.2696 22.3523 89.1204 21.7604 89.1252 21.0455V10.4773ZM95.6742 24V13.0909H98.6074V14.9943H98.7211C98.9199 14.3172 99.2537 13.8059 99.7225 13.4602C100.191 13.1098 100.731 12.9347 101.342 12.9347C101.493 12.9347 101.657 12.9441 101.832 12.9631C102.007 12.982 102.161 13.008 102.294 13.0412V15.7259C102.151 15.6832 101.955 15.6454 101.704 15.6122C101.453 15.5791 101.223 15.5625 101.015 15.5625C100.57 15.5625 100.172 15.6596 99.8219 15.8537C99.4763 16.0431 99.2016 16.3082 98.998 16.6491C98.7992 16.9901 98.6998 17.383 98.6998 17.8281V24H95.6742ZM107.779 24.2131C106.676 24.2131 105.722 23.9787 104.917 23.5099C104.117 23.0365 103.499 22.3783 103.063 21.5355C102.627 20.688 102.41 19.7055 102.41 18.5881C102.41 17.4612 102.627 16.4763 103.063 15.6335C103.499 14.786 104.117 14.1278 104.917 13.6591C105.722 13.1856 106.676 12.9489 107.779 12.9489C108.882 12.9489 109.834 13.1856 110.634 13.6591C111.439 14.1278 112.059 14.786 112.495 15.6335C112.93 16.4763 113.148 17.4612 113.148 18.5881C113.148 19.7055 112.93 20.688 112.495 21.5355C112.059 22.3783 111.439 23.0365 110.634 23.5099C109.834 23.9787 108.882 24.2131 107.779 24.2131ZM107.793 21.8693C108.295 21.8693 108.714 21.7273 109.05 21.4432C109.386 21.1544 109.64 20.7614 109.81 20.2642C109.985 19.767 110.073 19.2012 110.073 18.5668C110.073 17.9323 109.985 17.3665 109.81 16.8693C109.64 16.3722 109.386 15.9792 109.05 15.6903C108.714 15.4015 108.295 15.2571 107.793 15.2571C107.287 15.2571 106.86 15.4015 106.515 15.6903C106.174 15.9792 105.916 16.3722 105.741 16.8693C105.57 17.3665 105.485 17.9323 105.485 18.5668C105.485 19.2012 105.57 19.767 105.741 20.2642C105.916 20.7614 106.174 21.1544 106.515 21.4432C106.86 21.7273 107.287 21.8693 107.793 21.8693Z" fill="#09090B"/>
<defs>
<linearGradient id="paint0_linear_1_203" x1="17" y1="1" x2="17" y2="33" gradientUnits="userSpaceOnUse">
<stop stop-color="#00ABFF"/>
<stop offset="1" stop-color="#363BFF"/>
</linearGradient>
<linearGradient id="paint1_linear_1_203" x1="17" y1="1" x2="17" y2="33" gradientUnits="userSpaceOnUse">
<stop stop-color="#00C6FF"/>
<stop offset="1" stop-color="#1F2AF6"/>
</linearGradient>
</defs>
</svg>
