<svg xmlns="http://www.w3.org/2000/svg" xmlns:xlink="http://www.w3.org/1999/xlink" id="Round_Three" x="0px" y="0px" viewBox="0 0 205 55" style="enable-background:new 0 0 205 55;" xml:space="preserve"><style type="text/css">	.st0{fill:#FFFFFF;}	.st1{fill:#00945E;}	.st2{fill:#1E2021;}	.st3{fill:#FF8300;}	.st4{fill:#57D9CC;}	.st5{fill:url(#SVGID_1_);}	.st6{fill:url(#SVGID_2_);}	.st7{fill:url(#SVGID_3_);}	.st8{fill:url(#SVGID_4_);}	.st9{fill:#67CFCA;}	.st10{fill:#98A02D;}	.st11{fill:#3D74BF;}	.st12{fill:#9256A6;}	.st13{fill:#FF9E29;}	.st14{fill:url(#SVGID_5_);}	.st15{fill:url(#SVGID_6_);}</style><g>	<path class="st2" d="M69.6,13c2.7,0,5-2.3,5-5c0-2.7-2.2-5-5-5c-2.8,0-5,2.3-5,5C64.5,10.7,66.8,13,69.6,13z"></path>	<path class="st2" d="M202.5,34.2c0-9.6-7.5-17.2-16.9-17.6c-10-0.5-18.6,7.4-18.7,17.4c-0.1,3.4,0.9,6.7,2.5,9.4h-3.5  c-3.2,0-5.8-2.6-5.8-5.8v-8.3c0-7.5-5.5-12.6-12.9-12.6c-4.1,0-8.4,1.5-10.4,5.3c-2.3-3.4-5.9-5.3-10-5.3c-3.4,0-6.9,1.3-9,4.1  v-4.1H94.5c-2.7,0-5.4,0.9-7.5,2.6c-2.8,2.3-4,5.4-4,9c0,5.4,6.8,9.8,5.2,13.5c-0.4,1-1.4,1.6-2.5,1.6h-11V16.6H64.4v26.8h-3.6  c-3.1,0-5.5-2.5-5.5-5.5v-8.6c0-7.5-5.5-12.6-12.9-12.6c-4.1,0-8.4,1.5-10.4,5.3c-2.3-3.4-5.9-5.3-10-5.3c-3.4,0-6.9,1.3-9,4.1  v-4.1H2.5v35.5h10.4l0-21.4c0-2.9,2.3-5.4,5.2-5.5c3-0.1,5.5,2.3,5.5,5.3v21.5h10.5l0-21.4c0-2.9,2.3-5.4,5.2-5.5  c3-0.1,5.5,2.3,5.5,5.3v8.2c0,7.3,6,13.3,13.3,13.3h30.3c5.9,0,9.8-4.6,9.8-10.4c0-6.3-5.5-10.2-5.5-13.4c0,0,0,0,0,0  c0-1.6,1.4-2.9,3-2.9h11.6v26.8h10.4V30.7c0-2.9,2.3-5.4,5.2-5.5c3-0.1,5.5,2.3,5.5,5.3v21.5H139V30.7c0-2.9,2.3-5.4,5.2-5.5  c3-0.1,5.5,2.3,5.5,5.3v8.2c0,7.3,6,13.3,13.3,13.3h22.4l0,0C194.9,51.6,202.5,43.7,202.5,34.2z M192.9,36.6  c-0.8,2.8-3,5.1-5.8,5.8c-6.6,1.8-12.4-4.1-10.6-10.6c0.8-2.8,3-5.1,5.8-5.8C188.8,24.3,194.7,30.1,192.9,36.6z"></path></g></svg>